<svg version="1.1" id="Layer_1" xmlns="http://www.w3.org/2000/svg" xmlns:xlink="http://www.w3.org/1999/xlink" x="0px" y="0px"
	 width="100%" viewBox="0 0 512 512" enable-background="new 0 0 512 512" xml:space="preserve">
<path fill="#010101" opacity="1.000000" stroke="none" 
	d="
M336.000000,513.000000 
	C224.027206,513.000000 112.554405,513.000000 1.040803,513.000000 
	C1.040803,342.402191 1.040803,171.804352 1.040803,1.103257 
	C171.556137,1.103257 342.112366,1.103257 512.834290,1.103257 
	C512.834290,171.666534 512.834290,342.333252 512.834290,513.000000 
	C454.137665,513.000000 395.318817,513.000000 336.000000,513.000000 
M385.826477,427.346497 
	C397.283508,426.528687 408.786072,426.112122 420.189240,424.819366 
	C457.394440,420.601471 495.795593,395.646149 499.483337,350.370514 
	C501.773834,322.249512 494.378632,298.030457 472.030273,279.519623 
	C458.995972,268.723480 443.861237,262.044189 427.879272,257.096832 
	C421.253174,255.045685 414.497437,253.413345 408.543854,251.792816 
	C417.952515,247.915573 428.156158,244.648453 437.464813,239.698303 
	C465.038086,225.035416 482.473663,203.157516 483.228210,170.627014 
	C483.949341,139.537994 470.636810,116.900200 441.980743,103.891006 
	C421.283234,94.494835 399.206970,91.425423 376.826416,91.096886 
	C338.009979,90.527092 299.182159,90.724754 260.359131,90.611145 
	C252.043304,90.586815 243.727341,90.607605 235.298645,90.607605 
	C211.000702,159.909836 186.848206,228.797226 162.233826,299.001984 
	C137.153458,228.730759 112.564491,159.836365 88.059204,91.176437 
	C67.056183,91.176437 46.481628,91.176437 25.982067,91.176437 
	C25.982067,203.461258 25.982067,315.400696 25.982067,427.526917 
	C37.915413,427.526917 49.630852,427.526917 61.971313,427.526917 
	C61.971313,333.653168 61.971313,240.088058 61.971313,146.522949 
	C63.181599,147.686234 63.635071,148.895309 64.069160,150.111313 
	C88.123360,217.494186 112.190384,284.872498 136.181564,352.277802 
	C137.259842,355.307312 138.537949,356.715668 142.130951,356.620911 
	C153.621613,356.317719 165.130280,356.316406 176.621231,356.614349 
	C180.548203,356.716156 181.914642,355.261963 183.133118,351.742371 
	C206.377258,284.599609 229.772171,217.509094 253.146423,150.411423 
	C253.973785,148.036453 254.909302,145.699158 255.794418,143.344299 
	C256.121399,143.445404 256.448364,143.546524 256.775330,143.647629 
	C256.775330,238.231277 256.775330,332.814941 256.775330,427.378967 
	C299.667725,427.378967 342.276917,427.378967 385.826477,427.346497 
z"/>
<path fill="#FEFEFE" opacity="1.000000" stroke="none" 
	d="
M385.356323,427.362732 
	C342.276917,427.378967 299.667725,427.378967 256.775330,427.378967 
	C256.775330,332.814941 256.775330,238.231277 256.775330,143.647629 
	C256.448364,143.546524 256.121399,143.445404 255.794418,143.344299 
	C254.909302,145.699158 253.973785,148.036453 253.146423,150.411423 
	C229.772171,217.509094 206.377258,284.599609 183.133118,351.742371 
	C181.914642,355.261963 180.548203,356.716156 176.621231,356.614349 
	C165.130280,356.316406 153.621613,356.317719 142.130951,356.620911 
	C138.537949,356.715668 137.259842,355.307312 136.181564,352.277802 
	C112.190384,284.872498 88.123360,217.494186 64.069160,150.111313 
	C63.635071,148.895309 63.181599,147.686234 61.971313,146.522949 
	C61.971313,240.088058 61.971313,333.653168 61.971313,427.526917 
	C49.630852,427.526917 37.915413,427.526917 25.982067,427.526917 
	C25.982067,315.400696 25.982067,203.461258 25.982067,91.176437 
	C46.481628,91.176437 67.056183,91.176437 88.059204,91.176437 
	C112.564491,159.836365 137.153458,228.730759 162.233826,299.001984 
	C186.848206,228.797226 211.000702,159.909836 235.298645,90.607605 
	C243.727341,90.607605 252.043304,90.586815 260.359131,90.611145 
	C299.182159,90.724754 338.009979,90.527092 376.826416,91.096886 
	C399.206970,91.425423 421.283234,94.494835 441.980743,103.891006 
	C470.636810,116.900200 483.949341,139.537994 483.228210,170.627014 
	C482.473663,203.157516 465.038086,225.035416 437.464813,239.698303 
	C428.156158,244.648453 417.952515,247.915573 408.543854,251.792816 
	C414.497437,253.413345 421.253174,255.045685 427.879272,257.096832 
	C443.861237,262.044189 458.995972,268.723480 472.030273,279.519623 
	C494.378632,298.030457 501.773834,322.249512 499.483337,350.370514 
	C495.795593,395.646149 457.394440,420.601471 420.189240,424.819366 
	C408.786072,426.112122 397.283508,426.528687 385.356323,427.362732 
M389.034393,277.394806 
	C362.784943,269.063568 335.765106,268.550110 308.440002,269.127777 
	C308.440002,309.192078 308.440002,348.914642 308.440002,389.681915 
	C335.493225,388.934204 362.286316,388.675964 389.013031,387.208466 
	C399.158997,386.651367 409.345917,383.966888 419.164154,381.067047 
	C430.495056,377.720459 438.413361,369.792908 441.920135,358.410797 
	C447.346283,340.798828 445.759552,323.759613 435.224213,308.303619 
	C424.209869,292.145020 407.887421,283.502136 389.034393,277.394806 
M389.017059,228.626495 
	C391.811951,227.572662 394.650848,226.621689 397.394623,225.448349 
	C415.578644,217.672089 428.485138,205.307816 430.399750,184.658035 
	C432.923645,157.436752 422.891205,140.147064 395.130005,134.680450 
	C372.921265,130.307205 350.494202,129.819138 328.001038,129.835312 
	C321.546692,129.839966 315.092316,129.836014 308.432129,129.836014 
	C308.432129,165.540115 308.432129,200.776093 308.432129,236.407120 
	C335.472992,236.584259 362.247925,236.983475 389.017059,228.626495 
z"/>
<path fill="#010101" opacity="1.000000" stroke="none" 
	d="
M389.394104,277.565857 
	C407.887421,283.502136 424.209869,292.145020 435.224213,308.303619 
	C445.759552,323.759613 447.346283,340.798828 441.920135,358.410797 
	C438.413361,369.792908 430.495056,377.720459 419.164154,381.067047 
	C409.345917,383.966888 399.158997,386.651367 389.013031,387.208466 
	C362.286316,388.675964 335.493225,388.934204 308.440002,389.681915 
	C308.440002,348.914642 308.440002,309.192078 308.440002,269.127777 
	C335.765106,268.550110 362.784943,269.063568 389.394104,277.565857 
z"/>
<path fill="#010101" opacity="1.000000" stroke="none" 
	d="
M388.638184,228.749252 
	C362.247925,236.983475 335.472992,236.584259 308.432129,236.407120 
	C308.432129,200.776093 308.432129,165.540115 308.432129,129.836014 
	C315.092316,129.836014 321.546692,129.839966 328.001038,129.835312 
	C350.494202,129.819138 372.921265,130.307205 395.130005,134.680450 
	C422.891205,140.147064 432.923645,157.436752 430.399750,184.658035 
	C428.485138,205.307816 415.578644,217.672089 397.394623,225.448349 
	C394.650848,226.621689 391.811951,227.572662 388.638184,228.749252 
z"/>
</svg>